<?xml version="1.0" encoding="UTF-8"?>
<svg id="Layer_1" xmlns="http://www.w3.org/2000/svg" version="1.1" viewBox="0 0 1559 1275">
  <!-- Generator: Adobe Illustrator 30.2.1, SVG Export Plug-In . SVG Version: 2.1.1 Build 1)  -->
  <defs>
    <style>
      .st0 {
        fill: #ec3623;
      }

      .st1 {
        fill: #fdfbfb;
      }

      .st2 {
        fill: #fdfcfc;
      }

      .st3 {
        fill: #fcfafa;
      }

      .st4 {
        fill: #ed3623;
      }

      .st5 {
        fill: #242323;
      }
    </style>
  </defs>
  <path class="st5" d="M779.38,174.54q3.09,1.6,6.2,3.62c1.21.77,2.41,1.55,3.66,2.34,1.31.86,2.62,1.71,3.98,2.6,2.92,1.88,5.84,3.76,8.76,5.64,1.6,1.03,3.2,2.07,4.84,3.13,5.71,3.69,11.45,7.33,17.19,10.98q1.54.98,3.12,1.98c2.09,1.33,4.18,2.65,6.27,3.98,12.44,7.9,24.87,15.82,37.26,23.8,7.82,5.04,15.65,10.04,23.5,15.02,1.02.65,2.03,1.29,3.08,1.96,4.15,2.63,8.29,5.26,12.44,7.89,3.09,1.96,6.18,3.92,9.27,5.88q1.39.88,2.8,1.77c4.1,2.61,8.02,5.23,11.83,8.31,5.45,3.47,8.47,3.84,14.75,3.86.97.01,1.93.02,2.93.04,3.22.03,6.43.02,9.65,0,2.31.01,4.63.03,6.94.05,6.27.04,12.53.05,18.8.05,6.56,0,13.11.05,19.67.08,12.41.06,24.81.1,37.22.12,16.77.03,33.54.11,50.31.19,26.41.12,52.83.17,79.24.24v143.33h314.97c-2.54,6.81-5.39,12.24-9.19,18.21-.64,1.02-1.29,2.04-1.95,3.09-2.22,3.52-4.45,7.03-6.69,10.54-1.72,2.71-3.44,5.42-5.15,8.12-4.74,7.46-9.49,14.92-14.24,22.37-4.62,7.25-9.24,14.5-13.85,21.76-.91,1.43-1.82,2.86-2.76,4.34-7.07,11.12-14.14,22.25-21.2,33.38-12.53,19.75-25.08,39.49-37.64,59.22-10.74,16.88-21.47,33.76-32.19,50.66-12.53,19.75-25.08,39.49-37.64,59.22-10.74,16.88-21.47,33.76-32.19,50.66-10.7,16.88-21.42,33.74-32.15,50.6-2.85,4.47-5.69,8.95-8.53,13.42q-1.44,2.27-2.92,4.59c-1.79,2.82-3.58,5.64-5.38,8.46-1.73,2.73-3.51,5.42-5.32,8.09-2.35,3.89-3.98,7.32-5.68,11.53-3.39,7.6-6.79,14.17-13.57,18.77-14.96,4-31.49,1.4-46.75.15q-23.28-3.18-44.37,4.32c-5.94,7.48-9.52,15.97-12.87,25.05-1.96,5.15-4.44,9.56-7.21,14.26-.8,1.44-1.59,2.87-2.42,4.35-8.23,14.7-16.73,28.66-27.06,41.76-1.98,2.51-3.92,5.04-5.86,7.58-12.99,16.87-26.57,34.11-42.31,48.11-3.28,2.94-6.37,6.06-9.49,9.19-10.08,9.73-20.94,18.3-31.94,26.77-.87.68-1.75,1.35-2.65,2.05-51.87,39.59-112.32,64.54-174.06,79.87q-1.54.39-3.11.79c-13.56,3.18-25.64,1.48-39.05-1.89-1.64-.41-3.29-.82-4.98-1.25-65.11-17.12-127.31-46.31-180.27-90.72-1.24-1.02-2.49-2.05-3.77-3.1-8.56-7.17-16.58-14.88-24.53-22.8-4.03-4.02-8.15-7.92-12.29-11.82-5.31-5.11-10.1-10.41-14.71-16.24-3.14-3.98-6.37-7.85-9.62-11.73-1.08-1.29-2.16-2.58-3.27-3.91-2.01-2.34-4.08-4.62-6.23-6.82-3.09-3.49-5.07-7.01-7.31-11.17-1.84-2.8-3.7-5.58-5.57-8.36-8.92-13.54-16.63-27.9-24.52-42.15q-1.43-2.42-2.88-4.9-2.68-5.11-4.49-10.94c-2.37-6.46-4.37-11.41-10.08-14.87-15.05-3.41-31.31-1.25-46.59-.31q-36,2.19-44.39-3.56c-5.42-5.78-8.65-12.53-11.66-20-1.87-4.43-4.38-8.2-7.04-12.13-1.7-2.67-3.39-5.33-5.08-8-1.92-3.01-3.83-6.03-5.75-9.04-.96-1.51-1.91-3.01-2.9-4.56-2.78-4.38-5.57-8.76-8.36-13.14-10.89-17.11-21.77-34.24-32.63-51.37-10.55-16.64-21.13-33.26-31.71-49.88-12.72-19.99-25.43-39.99-38.12-60-10.55-16.64-21.13-33.26-31.71-49.88-12.72-19.99-25.43-39.99-38.12-60-6.91-10.89-13.83-21.78-20.75-32.66-.9-1.42-1.81-2.84-2.74-4.31-4.64-7.29-9.28-14.59-13.93-21.87-5.54-8.68-11.06-17.37-16.57-26.07-.89-1.41-1.79-2.82-2.71-4.27-2.54-4.01-5.07-8.03-7.6-12.06-.76-1.21-1.53-2.41-2.32-3.65q-5.2-8.32-5.2-11.87h314.97v-143.33c16.56.05,33.12.1,50.19.16,10.52,0,21.04,0,31.57-.02,16.68-.03,33.37-.05,50.05.04,12.15.06,24.31.07,36.46.02,6.43-.03,12.85-.03,19.28.03q37.07,1.02,69.48-16.14c3.25-2.23,6.57-4.29,9.91-6.37,3.23-2.12,6.46-4.24,9.69-6.37,14.67-9.62,29.43-19.07,44.29-28.37,12.3-7.69,24.57-15.42,36.77-23.29,1.17-.75,2.34-1.5,3.55-2.28,5.82-3.74,11.6-7.51,17.36-11.35,2.28-1.5,4.57-2.99,6.85-4.49,1.03-.7,2.06-1.4,3.12-2.12,5.98-3.88,8.87-5.06,15.55-2.96Z"/>
  <path class="st0" d="M779.38,174.54q3.09,1.6,6.2,3.62c1.21.77,2.41,1.55,3.66,2.34,1.31.86,2.62,1.71,3.98,2.6,2.92,1.88,5.84,3.76,8.76,5.64,1.6,1.03,3.2,2.07,4.84,3.13,5.71,3.69,11.45,7.33,17.19,10.98q1.54.98,3.12,1.98c2.09,1.33,4.18,2.65,6.27,3.98,12.44,7.9,24.87,15.82,37.26,23.8,7.82,5.04,15.65,10.04,23.5,15.02,1.02.65,2.03,1.29,3.08,1.96,4.15,2.63,8.29,5.26,12.44,7.89,3.09,1.96,6.18,3.92,9.27,5.88q1.39.88,2.8,1.77c4.1,2.61,8.02,5.23,11.83,8.31,5.45,3.47,8.47,3.84,14.75,3.86.97.01,1.93.02,2.93.04,3.22.03,6.43.02,9.65,0,2.31.01,4.63.03,6.94.05,6.27.04,12.53.05,18.8.05,6.56,0,13.11.05,19.67.08,12.41.06,24.81.1,37.22.12,16.77.03,33.54.11,50.31.19,26.41.12,52.83.17,79.24.24v143.33h314.97c-2.54,6.81-5.39,12.24-9.19,18.21-.64,1.02-1.29,2.04-1.95,3.09-2.22,3.52-4.45,7.03-6.69,10.54-1.72,2.71-3.44,5.42-5.15,8.12-4.74,7.46-9.49,14.92-14.24,22.37-4.62,7.25-9.24,14.5-13.85,21.76-.91,1.43-1.82,2.86-2.76,4.34-7.07,11.12-14.14,22.25-21.2,33.38-12.53,19.75-25.08,39.49-37.64,59.22-10.74,16.88-21.47,33.76-32.19,50.66-12.53,19.75-25.08,39.49-37.64,59.22-10.74,16.88-21.47,33.76-32.19,50.66-10.7,16.88-21.42,33.74-32.15,50.6-2.85,4.47-5.69,8.95-8.53,13.42q-1.44,2.27-2.92,4.59c-1.79,2.82-3.58,5.64-5.38,8.46-1.73,2.73-3.51,5.42-5.32,8.09-2.35,3.89-3.98,7.32-5.68,11.53-3.39,7.6-6.79,14.17-13.57,18.77-14.96,4-31.49,1.4-46.75.15q-23.28-3.18-44.37,4.32c-5.94,7.48-9.52,15.97-12.87,25.05-1.96,5.15-4.44,9.56-7.21,14.26-.8,1.44-1.59,2.87-2.42,4.35-8.23,14.7-16.73,28.66-27.06,41.76-1.98,2.51-3.92,5.04-5.86,7.58-12.99,16.87-26.57,34.11-42.31,48.11-3.28,2.94-6.37,6.06-9.49,9.19-10.08,9.73-20.94,18.3-31.94,26.77-.87.68-1.75,1.35-2.65,2.05-51.87,39.59-112.32,64.54-174.06,79.87q-1.54.39-3.11.79c-13.56,3.18-25.64,1.48-39.05-1.89-1.64-.41-3.29-.82-4.98-1.25-65.11-17.12-127.31-46.31-180.27-90.72-1.24-1.02-2.49-2.05-3.77-3.1-8.56-7.17-16.58-14.88-24.53-22.8-4.03-4.02-8.15-7.92-12.29-11.82-5.31-5.11-10.1-10.41-14.71-16.24-3.14-3.98-6.37-7.85-9.62-11.73-1.08-1.29-2.16-2.58-3.27-3.91-2.01-2.34-4.08-4.62-6.23-6.82-3.09-3.49-5.07-7.01-7.31-11.17-1.84-2.8-3.7-5.58-5.57-8.36-8.92-13.54-16.63-27.9-24.52-42.15q-1.43-2.42-2.88-4.9-2.68-5.11-4.49-10.94c-2.37-6.46-4.37-11.41-10.08-14.87-15.05-3.41-31.31-1.25-46.59-.31q-36,2.19-44.39-3.56c-5.42-5.78-8.65-12.53-11.66-20-1.87-4.43-4.38-8.2-7.04-12.13-1.7-2.67-3.39-5.33-5.08-8-1.92-3.01-3.83-6.03-5.75-9.04-.96-1.51-1.91-3.01-2.9-4.56-2.78-4.38-5.57-8.76-8.36-13.14-10.89-17.11-21.77-34.24-32.63-51.37-10.55-16.64-21.13-33.26-31.71-49.88-12.72-19.99-25.43-39.99-38.12-60-10.55-16.64-21.13-33.26-31.71-49.88-12.72-19.99-25.43-39.99-38.12-60-6.91-10.89-13.83-21.78-20.75-32.66-.9-1.42-1.81-2.84-2.74-4.31-4.64-7.29-9.28-14.59-13.93-21.87-5.54-8.68-11.06-17.37-16.57-26.07-.89-1.41-1.79-2.82-2.71-4.27-2.54-4.01-5.07-8.03-7.6-12.06-.76-1.21-1.53-2.41-2.32-3.65q-5.2-8.32-5.2-11.87h314.97v-143.33c16.56.05,33.12.1,50.19.16,10.52,0,21.04,0,31.57-.02,16.68-.03,33.37-.05,50.05.04,12.15.06,24.31.07,36.46.02,6.43-.03,12.85-.03,19.28.03q37.07,1.02,69.48-16.14c3.25-2.23,6.57-4.29,9.91-6.37,3.23-2.12,6.46-4.24,9.69-6.37,14.67-9.62,29.43-19.07,44.29-28.37,12.3-7.69,24.57-15.42,36.77-23.29,1.17-.75,2.34-1.5,3.55-2.28,5.82-3.74,11.6-7.51,17.36-11.35,2.28-1.5,4.57-2.99,6.85-4.49,1.03-.7,2.06-1.4,3.12-2.12,5.98-3.88,8.87-5.06,15.55-2.96ZM765.06,212.14c-1.42.92-2.83,1.85-4.3,2.8-1.55,1.02-3.1,2.04-4.69,3.1-2.49,1.62-4.97,3.24-7.46,4.86-1.77,1.15-3.55,2.31-5.32,3.46-11.01,7.18-22.1,14.2-33.19,21.24-3.86,2.45-7.72,4.9-11.57,7.35q-1.41.89-2.84,1.81c-6.49,4.13-12.96,8.28-19.43,12.45-7.92,5.1-15.86,10.17-23.81,15.22-1.03.66-2.07,1.31-3.13,1.99-4.23,2.68-8.45,5.37-12.68,8.04-3.15,1.99-6.29,3.99-9.44,5.99q-1.44.91-2.92,1.84-4.42,2.64-8.33,6.02c-2.74.17-5.5.23-8.24.25-1.79.02-3.58.03-5.42.05-2,0-4,.02-6,.03-2.09.02-4.19.03-6.28.05-5.7.04-11.4.08-17.1.11-5.95.03-11.9.08-17.85.12-11.28.08-22.55.15-33.83.22-15.23.09-30.46.2-45.69.3-24.01.17-48.02.31-72.03.46v141.73H113.79c2.25,6.02,4.02,10.01,7.35,15.17.88,1.37,1.76,2.75,2.67,4.16.95,1.47,1.9,2.94,2.88,4.45,2.03,3.17,4.07,6.33,6.1,9.5,1.04,1.62,2.08,3.23,3.15,4.89,4.77,7.42,9.51,14.88,14.24,22.33,1.86,2.93,3.72,5.85,5.58,8.78.92,1.45,1.84,2.89,2.79,4.38,2.75,4.32,5.49,8.63,8.24,12.95,10.9,17.13,21.78,34.26,32.65,51.41,10.55,16.64,21.13,33.26,31.71,49.88,12.72,19.99,25.43,39.99,38.12,60,9.64,15.2,19.3,30.39,28.97,45.58,2.77,4.35,5.53,8.69,8.3,13.04.92,1.45,1.84,2.9,2.79,4.39,1.86,2.92,3.71,5.84,5.57,8.75,4.69,7.38,9.39,14.76,14.09,22.13.95,1.5,1.91,2.99,2.89,4.53,1.77,2.78,3.54,5.55,5.31,8.32.83,1.31,1.67,2.62,2.52,3.96.93,1.37,1.86,2.74,2.81,4.16,2.49,4.18,4.22,7.92,6.03,12.43,3.74,8.46,7.51,15.87,14.81,21.31,13.79,4.61,28.95,3.32,43.24,2.71,5.35-.2,10.7-.23,16.05-.28,10.45-.12,20.9-.42,31.34-.83.88,1.81,1.76,3.62,2.67,5.48,1.19,2.42,2.37,4.85,3.56,7.27q.87,1.78,1.75,3.59c5.01,10.21,10.55,19.98,16.38,29.67,2.71,4.55,5.34,9.15,7.92,13.79,8.26,14.84,16.91,28.78,27.15,42.13.62.83,1.24,1.65,1.88,2.5,19.07,25.34,40.83,49.72,65.49,68.83,2.58,2.02,5.11,4.1,7.64,6.19,14.84,12.15,30.63,22.42,46.82,32.37.99.61,1.98,1.22,2.99,1.85,35.8,21.89,75.7,36.37,115.58,47.02,1.49.41,2.97.82,4.5,1.24,9,2.27,16.41,2.74,25.49.85q1.64-.33,3.32-.66c67.5-14.52,131.85-47.06,185.37-93.3,1.45-1.22,2.89-2.45,4.38-3.71,10.91-9.52,20.93-19.91,30.9-30.53,1.3-1.38,2.6-2.76,3.94-4.18,8.85-9.53,16.89-19.52,24.66-30.06.71-.94,1.42-1.88,2.15-2.85,21.65-29.01,40.44-64.17,55.8-97.48q1.64.07,3.32.13c10.4.39,20.8.64,31.2.73,5.35.05,10.69.16,16.04.39q22.84,1.86,43.64-5.51c5.85-6.6,9.45-14.19,12.78-22.5,1.95-4.65,4.51-8.62,7.3-12.74.83-1.31,1.67-2.61,2.52-3.96.83-1.3,1.66-2.59,2.51-3.93,1.9-2.98,3.8-5.97,5.7-8.95.95-1.49,1.9-2.97,2.87-4.5,4.61-7.22,9.2-14.45,13.8-21.68.91-1.43,1.82-2.86,2.76-4.34,7.07-11.12,14.14-22.25,21.2-33.38,12.53-19.75,25.08-39.49,37.64-59.22,10.74-16.88,21.47-33.76,32.19-50.66,10.71-16.89,21.44-33.77,32.18-50.64,4.63-7.27,9.25-14.55,13.88-21.82,6.45-10.14,12.9-20.28,19.35-30.42,1.82-2.86,3.64-5.72,5.46-8.59,4.6-7.24,9.21-14.47,13.84-21.69,2.36-3.68,4.72-7.37,7.08-11.06,1.15-1.79,2.29-3.58,3.44-5.36,1.6-2.48,3.19-4.97,4.78-7.46.92-1.43,1.83-2.86,2.78-4.33q2.22-3.24,1.96-6.65h-289.71v-141.73c-14.85.2-29.71.4-45.01.6-9.49.07-18.98.12-28.48.15-15.02.05-30.04.12-45.06.37-10.95.19-21.89.28-32.84.25-5.78,0-11.55.03-17.33.18-33.26.85-54.24-6.08-81.27-27.11-5.23-4-10.66-7.47-16.25-10.84q-2.43-1.52-4.91-3.06c-1.56-.97-3.12-1.94-4.73-2.94-3.6-2.25-7.2-4.51-10.8-6.76-.88-.55-1.76-1.1-2.67-1.67-9.01-5.65-17.97-11.39-26.93-17.15-1.49-.96-2.99-1.92-4.53-2.91-7.77-5.01-15.52-10.07-23.24-15.18-1.57-1.04-3.15-2.08-4.77-3.15-3.01-1.99-6.01-3.98-9-5.99-1.34-.88-2.67-1.76-4.05-2.67q-1.76-1.17-3.55-2.37c-5.95-3.25-9.14-.96-14.4,2.49Z"/>
  <path class="st4" d="M219.27,512.15c67.53-.15,135.06-.26,202.59-.33,7.97,0,15.94-.02,23.92-.02q2.38,0,4.81,0c25.7-.03,51.4-.08,77.1-.14,26.37-.06,52.74-.09,79.11-.11,16.27,0,32.54-.04,48.82-.09,11.16-.03,22.32-.04,33.47-.04,6.44,0,12.88,0,19.31-.04,5.9-.03,11.8-.03,17.69-.01,2.13,0,4.26,0,6.39-.03,14.75-.13,24.56,1.93,36.87,10.55,9.31,10.43,12.16,20.17,12.11,34.53-.32,12.53-3.71,23.92-7.23,35.78-.7,2.45-1.4,4.89-2.09,7.34-1.83,6.41-3.69,12.81-5.57,19.21-1.85,6.33-3.66,12.67-5.48,19.01-2.15,7.52-4.31,15.03-6.5,22.53-3.6,12.38-7.14,24.76-10.56,37.2-.67,2.41-1.33,4.82-2,7.23-.94,3.42-1.88,6.83-2.8,10.26-5.54,20.59-12.66,35.02-26.72,50.37-.93,1.04-1.87,2.08-2.83,3.15-12.56,12.93-28.51,19.34-45.67,19.46-1.15.01-2.3.03-3.48.04-3.85.04-7.71.08-11.56.11-2.76.03-5.53.06-8.29.09-25.2.25-50.4.39-75.6.49-18.63.08-37.25.22-55.88.43-13.1.14-26.2.22-39.3.25-7.82.02-15.64.07-23.47.19-7.36.11-14.72.14-22.08.11-2.7,0-5.4.03-8.09.1q-20.37.46-27.36-5.95c-3.05-4.43-5.42-8.76-7.7-13.68-1.18-1.89-2.38-3.76-3.63-5.6-1-1.58-1.99-3.17-3.02-4.8-.56-.88-1.12-1.77-1.69-2.68-1.77-2.8-3.54-5.61-5.3-8.42-2.47-3.93-4.95-7.86-7.43-11.78-.61-.96-1.22-1.93-1.84-2.92-3.78-5.99-7.59-11.96-11.44-17.9q-1.36-2.1-2.74-4.25c-1.67-2.58-3.34-5.15-5.01-7.72-.73-1.13-1.45-2.25-2.2-3.41-.63-.97-1.26-1.93-1.91-2.93q-1.33-2.43-1.33-5.62c96.58-.53,193.17-1.05,292.68-1.59,2.9-9.32,5.58-18.43,7.82-27.93q.44-1.83.88-3.69c.91-3.83,1.82-7.66,2.72-11.48.62-2.62,1.25-5.24,1.87-7.86,1.52-6.37,3.03-12.74,4.54-19.11-1.82.04-3.64.08-5.51.12-43.29.97-86.59,1.7-129.89,2.15-5.34.06-10.68.11-16.03.17-1.06.01-2.13.02-3.22.04-17.17.19-34.33.54-51.49.96-17.64.42-35.28.66-52.93.76-9.9.06-19.79.19-29.69.52q-64.19,2.03-77.83-11.55c-8.05-9.45-12.96-20.37-17.39-32.14-3.65-8.92-8.87-16.49-14.19-24.33-1.79-2.8-3.57-5.6-5.35-8.41-3.33-5.23-6.69-10.43-10.06-15.63-.77-1.19-1.55-2.38-2.34-3.61-1.43-2.21-2.87-4.41-4.32-6.6q-4.67-7.2-4.67-10.74Z"/>
  <path class="st4" d="M885.4,511.96c1.59,0,3.18,0,4.81,0,1.74,0,3.47,0,5.26.01,1.85,0,3.7,0,5.61,0,5.13,0,10.27,0,15.4.01,5.54,0,11.07,0,16.61,0,9.59,0,19.18,0,28.77.01,13.87.01,27.73.02,41.6.02,22.5,0,45,.01,67.5.03,21.86.01,43.71.03,65.57.03,1.35,0,2.69,0,4.08,0,6.76,0,13.52,0,20.27,0,56.07.02,112.13.04,168.2.08-2.15,5.99-4.58,10.83-8.04,16.08-1,1.53-2,3.06-3.04,4.63-1.06,1.61-2.13,3.21-3.22,4.87-2.18,3.33-4.36,6.66-6.54,9.98-1.04,1.58-2.07,3.16-3.14,4.79-3.95,6.06-7.76,12.21-11.56,18.38-4.41,7.1-8.9,14.15-13.39,21.19-.86,1.36-1.73,2.71-2.62,4.11-.8,1.26-1.61,2.52-2.44,3.82-.73,1.14-1.45,2.28-2.2,3.45q-1.75,2.66-3.24,4.25c-4.43.17-8.82.23-13.24.22-1.41,0-2.81,0-4.26.01-4.75.01-9.5.02-14.26.02-3.39,0-6.78.02-10.17.02-7.32.02-14.64.03-21.96.04-11.57.02-23.13.05-34.7.08-3.95.01-7.91.02-11.86.04q-1.48,0-2.99,0c-11.25.03-22.51.06-33.76.09-1.03,0-2.06,0-3.12,0-16.69.04-33.37.07-50.06.1-17.11.03-34.23.07-51.34.14-9.62.03-19.23.06-28.85.06-9.04,0-18.08.03-27.12.07-3.33.01-6.65.01-9.98,0-4.52,0-9.05.02-13.57.05-1.33,0-2.66-.02-4.03-.03q-4.01-.01-9.4.65c-3.26,5.25-4.3,9.38-5.76,15.48q-.38,1.58-.77,3.19c-.53,2.23-1.06,4.46-1.59,6.69-.79,3.36-1.6,6.72-2.41,10.07-2.75,11.51-5.13,22.97-7.31,34.64h314.97c-1.46,6.25-3.02,9.26-6.37,14.47-1.02,1.6-2.04,3.19-3.09,4.84-1.11,1.71-2.21,3.42-3.35,5.18-1.15,1.79-2.29,3.57-3.44,5.36-2.35,3.66-4.7,7.33-7.05,10.98-4.14,6.44-8.25,12.91-12.36,19.38-7.59,11.96-15.21,23.9-22.84,35.84-.68,1.07-1.36,2.14-2.07,3.24q-4.63,7.23-6.29,9.01c-4.55.17-9.07.24-13.62.25-1.45,0-2.89.01-4.38.02-4.89.02-9.78.03-14.66.04-3.49.01-6.98.03-10.47.04-10.5.04-21.01.06-31.51.08-4.95,0-9.89.02-14.84.03-16.45.03-32.89.06-49.34.08-4.27,0-8.54,0-12.81.01-1.06,0-2.12,0-3.22,0-17.18.02-34.35.07-51.53.14-17.64.07-35.28.11-52.91.11-9.9,0-19.8.02-29.71.08-9.32.05-18.64.06-27.97.04-3.42,0-6.83.01-10.25.04-4.68.04-9.35.02-14.03,0-1.34.02-2.69.04-4.07.07-11.28-.15-20.8-3.95-29.3-12.05-8.79-9.69-11.94-19.88-11.85-33.27.32-5.74,1.65-11.04,3.1-16.56.33-1.28.65-2.56.99-3.88,4.86-18.81,10.29-37.45,15.65-56.11,2.41-8.37,4.81-16.75,7.21-25.13.59-2.06,1.18-4.12,1.77-6.17,3.42-11.94,6.79-23.9,10.02-35.9.3-1.12.6-2.24.92-3.39,1.29-4.77,2.56-9.54,3.79-14.32,6.93-25.74,19.79-46.49,41.45-60.22,10.58-5.88,19.72-9.76,31.74-9.75Z"/>
  <path class="st2" d="M775.11,805.28q2.79,1.49,5.76,6.27.08,3.27-.19,6.87c-.13,7.54,1.43,11.2,6.13,17.02,1.69,1.41,3.4,2.8,5.11,4.18,8.5,7.37,11.87,19.72,14.21,30.86h2.97l-1.49,15.93,5.94,3.19c2.56,5.8,1.31,12.48.84,18.71-.08,1.11-.16,2.22-.24,3.37-.19,2.73-.4,5.45-.6,8.18h19.31c.49,3.15.98,6.31,1.49,9.56h16.34v-9.56h13.37v9.56h23.77c-.49-3.15-.98-6.31-1.49-9.56.98-2.63,1.96-5.26,2.97-7.96h68.34v-3.19c5.99-2.68,12-5.33,18.01-7.96,1.7-.76,3.39-1.52,5.14-2.3,1.65-.72,3.29-1.44,4.99-2.18,1.51-.67,3.02-1.33,4.57-2.02,4.68-1.55,8.47-1.73,13.34-1.46,0,6.68-3.39,10.05-7.15,15.03-.74.99-1.48,1.99-2.25,3.01-7.37,9.78-15.16,19.08-23.29,28.14-.84.95-1.69,1.89-2.55,2.87-11.91,13.32-24.14,25.57-38,36.53-2.47,1.96-4.92,3.95-7.36,5.95-21.23,17.07-45,31.25-69.46,42.24-1.24.56-2.49,1.12-3.77,1.7-20.15,8.96-40.45,16.44-61.6,22.19-1.21.34-2.41.69-3.66,1.05-13.54,1.96-25.04-.69-38.04-4.83-1.82-.57-3.63-1.14-5.5-1.73-46.31-14.97-88.17-38-126.63-69.34q2.94-.79,5.94-1.59c-.02-1.17-.03-2.33-.05-3.54-.32-28.9.12-57.76,1.07-86.64.12-3.64.23-7.28.34-10.91.15-5.17.33-10.35.52-15.52.04-1.54.08-3.09.13-4.68.38-9.37,1.9-16.62,5.42-25.22h2.97c4.66,12.4,5.27,23.68,5.54,36.96.06,2.19.12,4.38.18,6.58.16,5.75.29,11.51.42,17.26.11,4.62.23,9.23.36,13.85.65,23.95,1.14,47.9.93,71.86q4.41-.79,8.91-1.59c.04-1.19.07-2.38.11-3.6.17-5.37.35-10.74.54-16.1.06-1.87.12-3.74.18-5.67.06-1.79.12-3.57.19-5.41.05-1.65.11-3.3.17-5q.31-4.02,1.79-7.2h31.2v-9.56h14.86v9.56h14.86c.49-3.15.98-6.31,1.49-9.56h20.8q-.24-3.02-.48-6.1c-.18-2.64-.36-5.29-.54-7.93-.11-1.33-.22-2.65-.33-4.02-.08-1.28-.16-2.56-.25-3.87q-.13-1.76-.26-3.56.37-3.17,2.42-5.98,2.41-1.97,5.38-1.97c-.14-1.08-.28-2.15-.43-3.26-.16-1.42-.33-2.84-.5-4.3-.17-1.4-.34-2.81-.52-4.26-.04-4.53.62-6.73,2.94-10.48.98-.53,1.96-1.05,2.97-1.59.4-1.91.8-3.81,1.21-5.77,1.56-7.3,4.42-12.65,9.19-18.11,2.46-1.63,4.93-3.23,7.43-4.78,4.09-5.15,4.62-8.7,4.36-15.23-.17-5.34-.18-6.63,2.69-11.25q3.34-2.19,6.5-2.09Z"/>
  <path class="st3" d="M773.43,308.31c4.92,2.64,5.5,8.51,7.16,13.83.39,1.23.78,2.45,1.19,3.72.83,2.6,1.65,5.2,2.46,7.8,1.25,3.99,2.52,7.98,3.79,11.96.8,2.52,1.6,5.04,2.4,7.57.38,1.2.76,2.4,1.15,3.63q2.64,8.45,2.64,12h65.37q-8.35,7.16-12.67,10.32c-.95.7-1.9,1.39-2.88,2.11-.99.73-1.99,1.45-3.01,2.2-2.1,1.54-4.21,3.09-6.31,4.63-1.05.77-2.1,1.54-3.19,2.33-4.77,3.5-9.52,7.03-14.27,10.56-1.58,1.17-3.16,2.34-4.78,3.55-1.12.83-2.24,1.66-3.39,2.52,3.61,15.27,8.43,29.97,13.42,44.78.59,1.78,1.18,3.56,1.78,5.39.54,1.61,1.08,3.21,1.64,4.87q.99,3.88-.5,7.07c-1.36-1-2.73-1.99-4.13-3.02-5.07-3.7-10.14-7.4-15.22-11.09-2.19-1.6-4.39-3.2-6.58-4.8-3.15-2.3-6.31-4.6-9.47-6.9-.98-.72-1.95-1.43-2.96-2.17-4.42-3.21-8.76-6.28-13.64-8.64-1.36,1-2.73,1.99-4.13,3.02-5.07,3.7-10.14,7.4-15.22,11.09-2.19,1.6-4.39,3.2-6.58,4.8-3.15,2.3-6.31,4.6-9.47,6.9-.98.72-1.95,1.43-2.96,2.17-4.42,3.21-8.76,6.28-13.64,8.64,3.49-14.92,8.3-29.12,13.42-43.47.59-1.7,1.18-3.39,1.78-5.14q.81-2.28,1.64-4.62c1.08-4.47.96-6.21-.5-10.47-3.34-2.86-6.59-5.35-10.17-7.83-1.02-.73-2.03-1.45-3.08-2.2-3.25-2.32-6.51-4.61-9.78-6.9-3.26-2.3-6.52-4.61-9.78-6.93-2.03-1.44-4.06-2.87-6.1-4.3q-6.99-4.94-8.64-8.48h63.88q2.21-8.67,4.46-17.52c1.13-3.67,2.3-7.32,3.53-10.95q.95-2.78,1.91-5.62c3.07-8.84,6.22-17.64,9.42-26.43Z"/>
  <path class="st3" d="M1003.72,344.94c4.44,2.38,4.59,5.67,6.19,10.64.59,1.84,1.19,3.68,1.8,5.58.61,1.94,1.23,3.88,1.86,5.88.62,1.93,1.25,3.86,1.89,5.84q4.61,14.42,4.61,19.84h49.03c-4.53,4.85-8.12,8.18-13.35,11.87q-2.08,1.48-4.21,2.99c-1.44,1.01-2.88,2.02-4.36,3.06q-2.19,1.55-4.43,3.14c-3.6,2.54-7.2,5.08-10.8,7.61,2.16,7.93,4.38,15.83,6.89,23.64q.59,1.84,1.2,3.72c.81,2.52,1.63,5.03,2.46,7.54,1.02,3.2,1.93,6.44,2.82,9.69-.49,1.05-.98,2.1-1.49,3.19q-1.63-1.26-3.29-2.54c-4.04-3.09-8.1-6.16-12.17-9.21-1.76-1.32-3.51-2.66-5.25-4-2.51-1.93-5.04-3.83-7.58-5.72q-2.28-1.73-4.6-3.49-4.08-2.6-8.06-1.21c-3.77,2.36-7.42,4.79-11.02,7.46q-2.05,1.49-4.13,3.02c-2.85,2.1-5.7,4.21-8.55,6.32q-2.04,1.49-4.12,3c-1.24.91-2.47,1.83-3.75,2.77q-3.25,2-7.71,2c4.9-15.24,9.81-30.48,14.86-46.18-3.37-2.4-6.74-4.8-10.21-7.27q-21.7-15.49-26.93-19.81v-1.59c15.69-.53,31.38-1.05,47.54-1.59,4.9-15.24,9.81-30.48,14.86-46.18Z"/>
  <path class="st3" d="M543.15,344.94c4.27,6.87,6.47,14.37,9.1,22.1.55,1.58,1.11,3.17,1.68,4.8.52,1.53,1.05,3.07,1.58,4.65q.72,2.09,1.45,4.23,1.04,4.04,1.04,12.01h49.03c-5.17,5.54-8.76,9.23-14.65,13.27q-1.97,1.36-3.99,2.75c-1.35.92-2.71,1.84-4.11,2.79-1.38.95-2.77,1.9-4.19,2.88-3.39,2.33-6.79,4.66-10.2,6.97.41,1.23.81,2.46,1.23,3.73,1.83,5.56,3.64,11.12,5.46,16.68q.96,2.9,1.93,5.86c.6,1.85,1.21,3.71,1.83,5.61.56,1.71,1.12,3.42,1.7,5.18q1.23,4.34,1.23,9.12c-5.53-2.14-9.94-4.82-14.72-8.49q-2.03-1.52-4.09-3.06c-2.82-2.13-5.64-4.28-8.44-6.44q-2.03-1.5-4.09-3.04-1.83-1.4-3.7-2.82-3.54-2.07-7.27-.67c-4.04,2.39-7.83,4.94-11.63,7.75-1.45,1.07-2.9,2.13-4.4,3.23-1.5,1.11-2.99,2.23-4.54,3.37-1.53,1.12-3.05,2.25-4.62,3.41-3.76,2.77-7.51,5.55-11.26,8.34q-1.49-3.19-.59-6.78c.5-1.47.99-2.93,1.5-4.45.53-1.61,1.07-3.21,1.62-4.87q.86-2.53,1.74-5.1c1.11-3.31,2.23-6.62,3.33-9.93.5-1.47,1-2.95,1.51-4.46,1.23-4.04,2.08-7.99,2.77-12.18-4.52-3.32-9.04-6.64-13.56-9.95-1.27-.93-2.54-1.87-3.85-2.83q-1.87-1.37-3.77-2.77t-3.66-2.69c-2.9-2.11-5.82-4.17-8.76-6.22-1.17-.86-2.34-1.72-3.54-2.61v-1.59h49.03c.98-4.73,1.96-9.46,2.97-14.33,3.4-11.37,7.3-22.57,11.89-33.44Z"/>
  <path class="st1" d="M559.49,916.65h31.2c-.49,3.15-.98,6.31-1.49,9.56h16.34c-.49,1.58-.98,3.15-1.49,4.78-.22,2.47-.37,4.95-.47,7.43-.06,1.42-.12,2.84-.19,4.31-.06,1.48-.12,2.96-.18,4.48-.06,1.5-.13,3-.19,4.54-.16,3.7-.31,7.39-.46,11.09-5.46-2.46-8.97-6.02-13.14-10.48-1.36-1.46-2.72-2.91-4.13-4.41-.7-.76-1.41-1.52-2.13-2.3-2.13-2.3-4.28-4.58-6.43-6.87-1.36-1.46-2.72-2.93-4.13-4.44-1.24-1.33-2.48-2.66-3.75-4.03q-3.44-4.1-9.39-13.66Z"/>
</svg>