<?xml version="1.0" encoding="UTF-8"?>
<svg id="Layer_1" xmlns="http://www.w3.org/2000/svg" xmlns:xlink="http://www.w3.org/1999/xlink" version="1.1" viewBox="0 0 1559 1275">
  <!-- Generator: Adobe Illustrator 30.2.1, SVG Export Plug-In . SVG Version: 2.1.1 Build 1)  -->
  <defs>
    <style>
      .st0 {
        fill: none;
      }

      .st1 {
        fill: #002951;
      }

      .st2 {
        clip-path: url(#clippath-1);
      }

      .st3 {
        fill: #c6a24c;
      }

      .st4 {
        fill: #e20613;
      }

      .st5 {
        fill: #fff;
      }

      .st6 {
        clip-path: url(#clippath);
      }
    </style>
    <clipPath id="clippath">
      <rect class="st0" x="46.05" y="-25.24" width="1466.9" height="1325.49"/>
    </clipPath>
    <clipPath id="clippath-1">
      <rect class="st0" x="46.05" y="-25.24" width="1466.9" height="1325.49"/>
    </clipPath>
  </defs>
  <g class="st6">
    <g class="st2">
      <path class="st1" d="M770.05,1076.13c-166.49-70.07-282.93-161.73-355.97-280.21-36.6-59.37-62.47-124.86-79.08-200.22-15.91-72.19-22.9-151.65-21.35-242.9l.21-12.2,8.69-7.97c1.6-1.47,40.18-36.45,116.13-71.01,68.96-31.38,184.08-68.79,340.82-68.79s271.85,37.41,340.82,68.79c75.95,34.56,114.53,69.54,116.13,71.01l8.69,7.97.21,12.2c1.54,91.26-5.44,170.71-21.35,242.9-16.61,75.35-42.48,140.84-79.08,200.22-73.04,118.48-189.48,210.13-355.97,280.21l-9.45,3.98-9.45-3.98Z"/>
      <path class="st1" d="M1271.02,352.31l-.41-24.4-17.38-15.94c-6.52-5.98-163.19-146.43-473.72-146.43s-467.21,140.45-473.72,146.43l-17.38,15.94-.41,24.4c-1.58,93.55,5.62,175.2,22.03,249.62,17.31,78.52,44.33,146.86,82.6,208.95,38.86,63.03,87.9,117.33,149.93,166.01,60.73,47.66,132.06,88.42,218.06,124.61l18.9,7.95,18.9-7.95c86-36.19,157.32-76.95,218.06-124.61,62.03-48.68,111.08-102.98,149.93-166.01,38.28-62.09,65.29-130.43,82.6-208.95,16.4-74.42,23.61-156.07,22.03-249.62"/>
      <path class="st4" d="M779.5,220.13c295.01,0,440.18,133.17,440.18,133.17,5.87,347.04-115.77,560.92-440.18,697.46-324.41-136.54-446.05-350.42-440.18-697.46,0,0,145.17-133.17,440.18-133.17M779.5,193.62c-69.04,0-135.8,7.2-198.43,21.39-50.32,11.4-98.13,27.33-142.1,47.33-75.85,34.51-114.34,69.41-115.94,70.88l-8.44,7.74-.2,11.85c-1.54,91.19,5.44,170.58,21.33,242.71,16.59,75.26,42.42,140.67,78.98,199.96,37.11,60.2,84.06,112.15,143.53,158.81,58.87,46.2,128.25,85.81,212.1,121.1l9.18,3.86,9.18-3.86c83.85-35.29,153.22-74.9,212.1-121.1,59.47-46.66,106.42-98.61,143.53-158.81,36.55-59.29,62.39-124.7,78.98-199.96,15.9-72.13,22.88-151.52,21.33-242.71l-.2-11.85-8.44-7.74c-1.6-1.47-40.09-36.37-115.94-70.88-43.97-20-91.78-35.93-142.1-47.33-62.64-14.19-129.4-21.39-198.43-21.39"/>
      <path class="st5" d="M339.32,353.29l4.79,5.9-1.87-2.31,1.87,2.31h0s-1.87-2.31-1.87-2.31l1.87,2.31c.1-.09,36.06-32.92,108.41-65.71,72.36-32.79,181.09-65.56,326.98-65.57,146.46,0,255.48,33.04,327.83,65.95,36.18,16.46,63.18,32.89,81.08,45.16,8.95,6.13,15.63,11.23,20.04,14.76,2.2,1.77,3.84,3.14,4.92,4.06.54.46.93.81,1.18,1.03l.27.24.06.05h0s.43-.52.43-.52l-.43.53.43-.53-.43.53,3.3-4.08-3.3,4.07h0s3.3-4.07,3.3-4.07l-3.3,4.07,4.79-5.9-7.33.14c.13,7.89.2,15.71.2,23.46,0,82.79-7.67,157.56-24,225.15-24.52,101.4-68.42,186.66-135.63,259.24-67.21,72.56-157.91,132.46-276.12,182.21l2.7,7.25,2.7-7.25c-78.8-33.17-145.39-70.85-200.93-113.78-41.66-32.2-77.1-67.35-106.87-105.8-44.65-57.68-76.58-122.81-97.41-196.86-20.83-74.04-30.54-157.03-30.54-250.17,0-7.75.07-15.57.2-23.46l-7.33-.14,4.79,5.9-4.79-5.9-7.33-.14c-.13,7.98-.2,15.9-.2,23.74,0,83.81,7.76,159.89,24.46,229.03,25.04,103.71,70.34,191.8,139.38,266.31,69.04,74.53,161.63,135.46,281.17,185.77l2.7,1.14,2.7-1.14c79.7-33.55,147.4-71.8,204.15-115.67,85.13-65.77,145.57-144.29,184.48-237.83,38.93-93.54,56.39-201.91,56.39-327.61,0-7.85-.07-15.76-.2-23.74l-.06-3.49-2.48-2.28c-.46-.42-37.38-34.18-111.37-67.85-73.98-33.67-185.06-67.22-333.61-67.21-148.55,0-259.62,33.54-333.61,67.21-73.99,33.67-110.9,67.43-111.37,67.85l-2.48,2.28-.06,3.49,7.33.14Z"/>
      <path class="st5" d="M347.22,512.54h864.55s-4.76,140.15-101.21,291.21H450.09s-83.06-120.36-102.87-291.21"/>
      <polygon class="st5" points="445.43 373.47 465.79 373.47 497.18 434.67 497.18 373.47 519.08 373.47 519.08 482.29 498.71 482.29 467.32 421.23 467.32 482.29 445.43 482.29 445.43 373.47"/>
      <path class="st5" d="M579.96,373.47h23.58l28.17,108.82h-22.66l-4.59-18.8h-25.57l-4.44,18.8h-22.81l28.33-108.82ZM591.75,409.7l-8.42,35.54h17l-8.57-35.54Z"/>
      <polygon class="st5" points="722.75 373.47 722.75 391.86 696.88 391.86 696.88 482.29 674.98 482.29 674.98 391.86 649.11 391.86 649.11 373.47 722.75 373.47"/>
      <rect class="st5" x="759.29" y="373.47" width="21.89" height="108.82"/>
      <path class="st5" d="M891.98,388.98v77.81l-18.83,15.51h-35.37l-18.84-15.51v-77.81l18.84-15.51h35.37l18.83,15.51ZM840.84,395.97v63.81l4.75,4.25h19.75l4.75-4.25v-63.81l-4.75-4.12h-19.75l-4.75,4.12Z"/>
      <polygon class="st5" points="929.89 373.47 950.26 373.47 981.65 434.67 981.65 373.47 1003.54 373.47 1003.54 482.29 983.18 482.29 951.79 421.23 951.79 482.29 929.89 482.29 929.89 373.47"/>
      <polygon class="st5" points="1062.43 445.1 1062.43 459.79 1067.18 464.04 1086.93 464.04 1091.68 459.79 1091.68 440.16 1086.93 435.91 1060.9 435.91 1042.07 420.4 1042.07 388.98 1060.9 373.47 1093.21 373.47 1112.04 388.98 1112.04 404.89 1089.99 404.89 1089.99 395.97 1085.4 391.86 1068.71 391.86 1063.96 395.97 1063.96 413.4 1068.71 417.66 1094.74 417.66 1113.57 433.16 1113.57 466.79 1094.74 482.29 1059.37 482.29 1040.53 466.79 1040.53 445.1 1062.43 445.1"/>
      <polygon class="st1" points="64.61 533.72 85.87 565.79 113.04 606.77 112.72 606.77 161.49 679.82 161.3 679.82 229.84 782.56 445.82 782.56 445.82 709.51 445.82 679.82 445.82 636.46 445.82 606.77 445.82 533.72 64.61 533.72"/>
      <polygon class="st3" points="145.07 611.16 110.5 559.02 422.02 559.02 422.02 611.16 145.07 611.16"/>
      <path class="st5" d="M417.36,563.98v42.23H147.49l-28-42.23h297.87ZM426.68,554.07H101.51l41.14,62.05h284.03v-62.05Z"/>
      <polygon class="st3" points="193.6 684.21 158.8 632.07 422.02 632.07 422.02 684.21 193.6 684.21"/>
      <path class="st5" d="M417.36,637.03v42.23h-221.35l-28.19-42.23h249.54ZM426.68,627.12H149.77l41.42,62.05h235.49v-62.05Z"/>
      <polygon class="st3" points="242.14 757.26 207.36 705.12 422.02 705.12 422.02 757.26 242.14 757.26"/>
      <path class="st5" d="M417.36,710.08v42.23h-172.81l-28.17-42.23h200.98ZM426.68,700.17h-228.34l41.39,62.05h186.95v-62.05Z"/>
      <polygon class="st1" points="1494.39 533.72 1473.13 565.79 1445.96 606.77 1446.28 606.77 1397.51 679.82 1397.7 679.82 1329.16 782.56 1113.18 782.56 1113.18 709.51 1113.18 679.82 1113.18 636.46 1113.18 606.77 1113.18 533.72 1494.39 533.72"/>
      <polygon class="st3" points="1413.93 611.16 1448.5 559.02 1136.98 559.02 1136.98 611.16 1413.93 611.16"/>
      <path class="st5" d="M1141.64,563.98h297.87l-28,42.23h-269.87v-42.23ZM1132.32,616.12h284.03l41.14-62.05h-325.17v62.05Z"/>
      <polygon class="st3" points="1365.4 684.21 1400.2 632.07 1136.98 632.07 1136.98 684.21 1365.4 684.21"/>
      <path class="st5" d="M1141.64,637.03h249.54l-28.19,42.23h-221.35v-42.23ZM1132.32,689.17h235.49l41.42-62.05h-276.91v62.05Z"/>
      <polygon class="st3" points="1316.86 757.26 1351.64 705.12 1136.98 705.12 1136.98 757.26 1316.86 757.26"/>
      <path class="st5" d="M1141.64,710.08h200.98l-28.17,42.23h-172.81v-42.23ZM1132.32,762.22h186.95l41.39-62.05h-228.34v62.05Z"/>
      <path class="st4" d="M616.15,750.18l-25.91,24.29h-96.54v-232.64h96.54l25.91,24.43v71.53l-15.6,20.14,15.6,20.59v71.67ZM534.1,636.6h41.51v-51.83h-41.51v51.83ZM534.1,731.52h41.51v-51.83h-41.51v51.83Z"/>
      <polygon class="st4" points="755.37 774.46 649.92 774.46 649.92 541.82 754.54 541.82 754.54 584.77 690.32 584.77 690.32 636.59 745.62 636.59 745.62 679.69 690.32 679.69 690.32 731.52 755.37 731.52 755.37 774.46"/>
      <polygon class="st4" points="910.75 750.18 884.98 774.46 815.19 774.46 789.14 750.18 789.14 712.71 829.54 712.71 829.54 731.52 870.35 731.52 870.35 679.69 815.19 679.69 789.14 655.25 789.14 566.25 815.19 541.82 884.98 541.82 910.75 566.11 910.75 602.24 870.35 602.24 870.35 584.76 829.54 584.76 829.54 636.6 884.98 636.6 910.75 661.03 910.75 750.18"/>
      <polygon class="st4" points="1065.29 584.77 1025.17 584.77 1025.17 774.46 984.64 774.46 984.64 584.77 944.52 584.77 944.52 541.82 1065.29 541.82 1065.29 584.77"/>
      <polygon class="st3" points="783.84 319.21 780.19 315.33 775.58 318.87 752.37 336.79 762.62 302.93 735.62 281.93 769.15 281.94 779.52 248.06 789.86 281.95 823.38 281.96 796.25 302.9 806.6 336.81 783.84 319.21"/>
      <polygon class="st3" points="679.57 318.94 676.87 316.07 673.45 318.69 656.27 331.95 663.86 306.89 643.87 291.34 668.69 291.35 676.37 266.26 684.03 291.36 708.85 291.36 688.76 306.87 696.43 331.97 679.57 318.94"/>
      <polygon class="st3" points="885.86 318.94 883.15 316.07 879.74 318.69 862.55 331.95 870.15 306.89 850.16 291.34 874.98 291.35 882.66 266.26 890.32 291.36 915.13 291.36 895.05 306.87 902.71 331.97 885.86 318.94"/>
      <path class="st5" d="M834.33,901.64c18.93-9.16,32.16-22.75,32.1-37.7,0,0-4.92-3.55-21.4-9.93-14.44-5.59-25.02-7.52-25.02-7.52l.13,33.4c0,4.6-1.19,8.81-4.5,13.6-12.12-4.69-23.58-7.58-36.1-7.58h-.03c-12.52,0-23.98,2.88-36.1,7.58-3.31-4.79-4.5-8.99-4.5-13.6l.05-33.35s-10.33,1.93-24.7,7.34c-13.14,4.95-21.69,10.14-21.69,10.14,1.16,14.73,9.09,25.88,32.15,37.64-19.06,9.09-31.22,21.31-32.11,36.17,0,0,1.7,1,5.02,2.66,12.34,6.17,25.13,11.04,41.3,14.79l-.03-31.86c0-4.6,1.19-8.81,4.5-13.6,12.12,4.69,23.58,7.58,36.1,7.58h.03c12.52,0,23.98-2.88,36.1-7.58,3.31,4.79,4.5,8.99,4.5,13.6l-.13,31.9c13.78-3.32,24.53-6.9,34.1-11.3,8.6-3.96,12.33-6.15,12.33-6.15-1.52-15.11-12.95-27.04-32.11-36.21M805.84,903.45c-5.98,4.5-14.66,7.59-25.95,7.59h-.35s-.02,0-.02,0h-.37c-11.29,0-19.97-3.09-25.95-7.59-.93-.7-1.7-1.29-2.35-1.8.65-.51,1.42-1.1,2.35-1.8,5.98-4.5,14.66-7.59,25.95-7.59h.36s.02,0,.02,0h.37c11.29,0,19.97,3.09,25.95,7.6.93.7,1.7,1.29,2.35,1.8-.65.51-1.42,1.1-2.35,1.8"/>
    </g>
  </g>
</svg>