<?xml version="1.0" encoding="UTF-8"?>
<svg id="Layer_1" xmlns="http://www.w3.org/2000/svg" xmlns:xlink="http://www.w3.org/1999/xlink" version="1.1" viewBox="0 0 1559 1275">
  <!-- Generator: Adobe Illustrator 30.2.1, SVG Export Plug-In . SVG Version: 2.1.1 Build 1)  -->
  <defs>
    <style>
      .st0 {
        fill: none;
      }

      .st1 {
        fill: #f57f27;
      }

      .st2 {
        clip-path: url(#clippath-1);
      }

      .st3 {
        fill: #fff;
      }

      .st4 {
        fill: #0d2d6c;
      }

      .st5 {
        clip-path: url(#clippath);
      }
    </style>
    <clipPath id="clippath">
      <rect class="st0" x="-33.78" y="0" width="1626.55" height="1379.83"/>
    </clipPath>
    <clipPath id="clippath-1">
      <rect class="st0" x="-33.78" y="0" width="1626.55" height="1379.83"/>
    </clipPath>
  </defs>
  <g class="st5">
    <g class="st2">
      <path class="st1" d="M538.46,627.21c5.12-.4,7.67-.59,12.79-.97v49.52c-10.54.78-15.81,1.19-26.35,2.07-3.36.28-5.94-.33-7.74-1.83-1.81-1.5-2.71-3.77-2.71-6.84v-34.67c-1.08-2.03-1.63-3.04-2.71-5.07,6.19-.54,9.29-.8,15.49-1.31v37.5c0,1.18.64,1.71,1.93,1.61,3.72-.3,5.58-.45,9.3-.74v-39.27Z"/>
      <path class="st1" d="M625.4,621.66c3.36-.17,5.95.54,7.76,2.1,1.81,1.57,2.72,3.88,2.72,6.95v15.07c0,3.06-.9,5.46-2.72,7.2-1.81,1.73-4.4,2.68-7.76,2.85-5.43.27-8.15.41-13.58.7v15.35c-5.12.28-7.68.42-12.8.72v-44.22c-1.08-2.06-1.63-3.09-2.71-5.15,11.63-.69,17.45-1,29.1-1.58M623.07,643.92v-10.12c0-1.18-.65-1.73-1.94-1.67-3.72.19-5.59.29-9.31.49v13.65c3.72-.2,5.59-.3,9.31-.49,1.29-.07,1.94-.69,1.94-1.87"/>
      <path class="st1" d="M680.61,659.74v-6.58c5.13-.16,7.69-.24,12.82-.38v4.1c0,1.18.65,1.75,1.94,1.72,3.11-.08,4.66-.12,7.77-.2,1.3-.03,1.94-.64,1.94-1.81v-5.52c0-1.08-.57-1.73-1.71-1.94-5.41-.97-8.11-1.45-13.51-2.4-6.16-1.1-9.24-4.49-9.24-10.19v-7.92c0-3.07.91-5.45,2.72-7.16,1.81-1.7,4.4-2.61,7.77-2.7,6.37-.18,9.55-.26,15.92-.41,3.37-.08,5.95.7,7.77,2.31,1.81,1.61,2.72,3.96,2.72,7.02v5.94c-5.13.1-7.69.16-12.82.28v-3.47c0-1.18-.65-1.75-1.94-1.72-2.95.07-4.43.11-7.38.19-1.3.04-1.94.64-1.94,1.82v4.53c0,1.09.57,1.73,1.71,1.93,5.41.96,8.11,1.44,13.52,2.43,6.16,1.13,9.24,4.57,9.24,10.28v8.92c0,3.07-.91,5.44-2.72,7.13-1.81,1.69-4.4,2.57-7.77,2.64-6.53.15-9.79.23-16.31.42-3.37.1-5.95-.65-7.77-2.25-1.81-1.6-2.72-3.93-2.72-6.99"/>
      <path class="st1" d="M761.1,628.2v-10.26c14.76-.08,22.14-.07,36.91.03v10.26c-4.82-.03-7.22-.05-12.04-.06v39.27c-5.13-.02-7.69-.02-12.82-.01v-39.27c-4.82,0-7.23.01-12.04.04"/>
      <path class="st1" d="M864.67,668.68c-.87-4.13-1.31-6.19-2.17-10.32-5.1-.14-7.64-.21-12.74-.33-.87,4.08-1.31,6.13-2.18,10.21-5.28-.12-7.92-.18-13.21-.28,4.72-17.6,7.08-26.39,11.81-43.97-1.09-2.15-1.63-3.22-2.72-5.37,8.48.19,12.72.29,21.21.53,5.28,19.96,7.92,29.95,13.2,49.93-5.28-.18-7.92-.26-13.2-.41M851.93,647.82c3.36.08,5.03.13,8.39.22-1.58-7.54-2.38-11.31-3.96-18.85-.19,0-.28,0-.47-.01-1.58,7.46-2.38,11.19-3.96,18.65"/>
      <path class="st1" d="M914.06,631.23v-10.26c14.75.66,22.12,1.03,36.86,1.87v10.26c-4.81-.28-7.21-.41-12.02-.66v39.27c-5.12-.27-7.68-.4-12.81-.65v-39.27c-4.81-.24-7.22-.35-12.03-.56"/>
      <path class="st1" d="M1009.55,656.1v9.91c8.68.66,13.02,1.01,21.69,1.73-2.48,3.9-3.72,5.85-6.19,9.75-11.31-.92-16.97-1.35-28.29-2.17v-44.22c-1.08-2.2-1.63-3.3-2.71-5.5,14.88,1.06,22.32,1.63,37.19,2.87-2.48,3.89-3.72,5.84-6.19,9.75-6.2-.5-9.3-.75-15.5-1.22v8.84c7.13.55,10.69.83,17.82,1.41-2.48,3.9-3.72,5.85-6.2,9.75-4.65-.37-6.97-.55-11.62-.91"/>
      <path class="st4" d="M461.82,690.4c9.57-23.62,14.35-35.42,23.92-58.96-55.12,5.27-82.64,8.53-137.5,16.31,9.56,21.34,14.34,32.04,23.91,53.46v174.31c-8.71,13.57-13.06,20.38-21.75,34.02-20.48,2.89-30.71,4.42-51.14,7.65-8.68-11.04-13.01-16.54-21.68-27.52v-174.31c9.53-24.28,14.29-36.4,23.83-60.6-54.74,8.63-82.04,13.57-136.38,24.69,9.44,20.7,14.16,31.07,23.61,51.84v210.46c-5.68,11.28-8.51,16.92-14.18,28.23,20.16,20.16,30.25,30.32,50.46,50.82,79.71-14.66,119.81-20.65,200.24-29.96,20.39-26.58,30.6-39.79,51.03-66.02-5.75-9.59-8.62-14.39-14.36-23.95v-210.46Z"/>
      <path class="st4" d="M1364.78,732.54c9.69-21.28,14.53-31.9,24.21-53.1-52.41-10.73-78.74-15.52-131.52-23.92,7.35,13.5,11.02,20.27,18.36,33.82v125.33c-2.99,3.64-4.49,5.47-7.48,9.12-34.53-72.23-51.83-108.1-86.49-179.34-45.34-6.06-68.07-8.66-113.6-13.01,9.57,23.55,14.36,35.34,23.93,58.96v239.83c-9.57,21.64-14.35,32.48-23.93,54.2,51.33,4.91,76.95,7.91,128.06,14.98-5.78-10.48-8.68-15.71-14.46-26.16v-126.23c3.59-4.82,5.39-7.23,8.98-12.04,34.13,70.13,51.16,105.44,85.16,176.54,45.33,7.5,67.93,11.69,112.98,20.91-9.68-25.16-14.52-37.72-24.21-62.81v-237.09Z"/>
      <path class="st4" d="M816.28,727.22c5.2-13.16,7.8-19.74,13-32.87-14.51-.25-21.76-.33-36.27-.4,0,.01.01.02.02.03-6.25-.03-9.37-.04-15.61-.04,0-.01.01-.02.02-.03-14.51,0-21.76.04-36.27.21,5.31,13.43,7.96,20.16,13.27,33.61v208.89c-5.35,13.64-8.03,20.47-13.38,34.13,5.35-.06,8.03-.09,13.38-.13,9.16-.07,13.74-.08,22.9-.08,6.23,0,9.34.01,15.57.04,9.35.05,14.02.09,23.37.21,5.16.07,7.74.11,12.9.19-5.16-13.21-7.74-19.81-12.9-33v-210.76"/>
      <path class="st4" d="M1032.37,704.48c-18.73-1.57-28.09-2.28-46.84-3.56-10.61-.72-15.91-1.06-26.53-1.69-3.84-.23-5.77-.34-9.61-.56-10.62-.6-15.92-.88-26.55-1.38-18.77-.89-28.15-1.27-46.93-1.88-5.95,13.62-8.93,20.44-14.88,34.1v208.66c5.37,13.56,8.06,20.34,13.42,33.92,29.98.96,44.97,1.62,74.93,3.31,3.84.22,5.77.33,9.61.56,29.95,1.78,44.92,2.86,74.82,5.38,5.35-12.96,8.03-19.43,13.38-32.37v-208.66c-5.93-14.34-8.9-21.51-14.83-35.82M985.53,921.33c-10.61-.72-15.91-1.06-26.53-1.69-3.84-.23-5.77-.34-9.61-.56-10.62-.6-15.92-.88-26.55-1.38v-164.1c10.62.51,15.93.78,26.55,1.38,3.84.22,5.77.33,9.61.56,10.62.63,15.92.97,26.53,1.7v164.1"/>
      <path class="st4" d="M698.84,729.88c5.52-14.17,8.27-21.25,13.79-35.4-33.79.71-50.68,1.3-84.45,2.94,3.54,8.66,5.31,12.99,8.84,21.67v110.93c-1.88,2.93-2.82,4.39-4.71,7.32-23.96-54.91-35.93-82.25-59.87-136.69-24.69,1.65-37.02,2.61-61.68,4.76v.1c-5.33.47-8,.7-13.33,1.19,5.31,13.08,7.97,19.62,13.29,32.72.01,1.28.02,1.92.04,3.2v199.18c-.03,2.5-.04,3.75-.07,6.24-5.34,14.11-8.02,21.17-13.36,35.3,5.37-.49,8.06-.73,13.43-1.2,9.09-.79,13.63-1.17,22.73-1.9,15.57-1.24,23.37-1.81,38.95-2.86,3.92-.26,5.89-.39,9.81-.64-3.92-7.88-5.89-11.82-9.81-19.69v-111.4c2.02-3.18,3.02-4.78,5.04-7.96,23.8,53.96,35.71,81.05,59.53,135.47v.58c24.71-1.13,37.08-1.57,61.81-2.2v-.12c5.52-.1,8.27-.14,13.79-.21-5.52-15.17-8.27-22.75-13.79-37.89v-203.44"/>
    </g>
    <polygon class="st4" points="565.02 191.6 588.85 240.04 588.85 353.63 573.21 376.49 633.53 428.68 680.08 428.68 680.08 445.05 665.19 467.91 726.25 520.44 924.35 520.44 986.53 468.25 970.15 445.39 969.78 331.12 993.98 283.02 879.29 283.02 879.29 239.7 902.38 191.6 751.57 191.6 771.31 238.67 771.31 282 699.81 282 699.44 239.35 722.16 191.6 565.02 191.6"/>
    <polygon class="st1" points="948.69 328.32 959.95 305.38 876.27 305.13 885.73 327.74 885.91 433.2 870.87 449.7 785.21 449.7 769.81 432.04 769.81 406.9 823.32 406.9 864.84 371.83 855.57 358.38 855.57 233.87 866.83 210.93 783.15 210.69 792.61 233.29 792.79 338.75 777.75 355.25 769.81 355.25 769.81 327.74 780.26 305.13 692.17 305.13 703.7 328.32 703.7 355.25 692.09 355.25 676.69 337.59 676.69 233.29 687.14 210.69 599.05 210.69 610.58 233.87 610.58 358.38 601.3 371.83 642.73 406.9 703.7 406.9 703.7 452.83 694.43 466.28 735.85 501.35 916.44 501.35 957.97 466.28 948.69 452.83 948.69 328.32"/>
    <line class="st3" x1="864.84" y1="371.83" x2="823.32" y2="406.9"/>
    <polygon class="st3" points="599.05 210.69 610.58 233.87 610.58 358.39 618.4 330.54 618.64 233.77 599.05 210.69"/>
    <polygon class="st3" points="692.1 305.27 703.63 328.46 703.63 452.97 711.44 425.12 711.69 328.35 692.1 305.27"/>
    <polygon class="st3" points="737.26 362.6 680.87 362.6 692.13 355.37 722.96 355.23 737.26 362.6"/>
    <polygon class="st3" points="703.65 399.53 645.89 399.65 612.94 371.87 601.26 371.85 634.18 399.67 634.18 399.67 634.42 399.88 642.73 406.9 642.79 406.9 654.5 406.9 703.72 406.9 703.65 399.53"/>
    <polygon class="st3" points="925.18 493.97 792.44 493.99 780.32 494.01 759.01 494.06 745.49 494.09 739.26 494.1 706.31 466.32 694.63 466.3 727.55 494.12 727.79 494.32 736.1 501.35 736.15 501.35 747.87 501.35 797.09 501.35 916.45 501.35 925.18 493.97"/>
    <polygon class="st3" points="959.95 305.32 948.69 328.57 948.69 452.83 940.6 425.17 941.04 328.31 959.95 305.32"/>
    <polygon class="st3" points="866.8 211.03 855.54 234.28 855.54 358.54 847.45 330.88 847.89 234.02 866.8 211.03"/>
    <polygon class="st3" points="823.32 406.9 769.88 406.9 769.74 399.73 832.17 399.44 823.32 406.9"/>
  </g>
</svg>